<svg xmlns="http://www.w3.org/2000/svg" viewBox="0 0 512 512">
  <defs>
    <linearGradient id="bg" x1="0%" y1="0%" x2="100%" y2="100%">
      <stop offset="0%" style="stop-color:#1E3A8A"/>
      <stop offset="100%" style="stop-color:#2563EB"/>
    </linearGradient>
  </defs>
  <rect width="512" height="512" rx="96" fill="url(#bg)"/>
  <!-- B letter -->
  <path d="M120 100h100c35 0 63 12 63 50 0 25-15 42-38 48v2c28 5 48 25 48 55 0 42-32 60-72 60H120V100zm55 85h35c18 0 30-8 30-27 0-20-12-28-30-28h-35v55zm0 95h40c22 0 35-10 35-32 0-23-14-33-35-33h-40v65z" fill="white"/>
  <!-- J letter -->
  <path d="M300 100h55v175c0 50-25 78-70 78-15 0-30-3-40-10l10-40c7 4 15 7 23 7 22 0 22-18 22-38V100z" fill="white"/>
  <!-- Accent bar -->
  <rect x="120" y="380" width="235" height="8" rx="4" fill="#60A5FA"/>
</svg>
